<svg width="25" height="24" viewBox="0 0 25 24" fill="none" xmlns="http://www.w3.org/2000/svg">
<path fill-rule="evenodd" clip-rule="evenodd" d="M2.75279 0.625H2.7526H2.75247C2.37982 0.624938 2.01922 0.757009 1.73476 0.997744C1.45021 1.23855 1.2603 1.57247 1.19879 1.94012L1.19871 1.94062L0.377821 6.8648C0.333528 7.10353 0.349333 7.34961 0.423922 7.58083C0.500091 7.81696 0.635058 8.02983 0.816132 8.19944L0.825306 8.20803L0.834722 8.21636C0.951718 8.3198 1.1045 8.44327 1.29175 8.57048V20.1667C1.29175 21.0176 1.62977 21.8336 2.23145 22.4353C2.83313 23.037 3.64918 23.375 4.50008 23.375H20.8334C21.6843 23.375 22.5004 23.037 23.102 22.4353C23.7037 21.8336 24.0417 21.0176 24.0417 20.1667V8.55969C24.1947 8.45467 24.3419 8.3401 24.4825 8.21632L24.4922 8.20777L24.5017 8.19893C24.6832 8.02928 24.8185 7.81617 24.8947 7.57972C24.9694 7.34831 24.9851 7.10202 24.9406 6.86315L24.1186 1.93925L24.1183 1.9375C24.0563 1.57077 23.8665 1.23781 23.5826 0.997589C23.2986 0.757365 22.9388 0.625377 22.5669 0.625H22.566H18.7006H17.9087H16.9418H13.5337H12.6587H12.6587H11.7837H8.37548H7.40865H7.40863H6.61679H2.75279ZM6.44179 2.375H2.90045L2.12686 7.01545C2.46368 7.27716 3.06985 7.62617 3.90863 7.62617C4.58783 7.62617 5.16711 7.39925 5.5891 7.15812C5.75213 7.06496 5.88714 6.9722 5.98979 6.895L6.44179 2.375ZM6.82617 8.44754C6.7167 8.52182 6.59348 8.59975 6.45734 8.67755C5.85849 9.01975 4.97944 9.37617 3.90863 9.37617C3.59974 9.37617 3.31055 9.34662 3.04175 9.296V20.1667C3.04175 20.5534 3.19539 20.9244 3.46888 21.1979C3.74237 21.4714 4.11331 21.625 4.50008 21.625H20.8334C21.2202 21.625 21.5911 21.4714 21.8646 21.1979C22.1381 20.9244 22.2917 20.5534 22.2917 20.1667V9.29123C22.0025 9.34695 21.7067 9.37534 21.4083 9.375C20.3377 9.37491 19.4588 9.01854 18.86 8.67638C18.7242 8.59879 18.6013 8.52107 18.492 8.44696C18.3828 8.52107 18.2598 8.59879 18.1241 8.67638C17.5252 9.01858 16.6462 9.375 15.5754 9.375C14.5046 9.375 13.6255 9.01858 13.0267 8.67638C12.8909 8.59879 12.7679 8.52106 12.6587 8.44694C12.5494 8.52106 12.4265 8.59879 12.2907 8.67638C11.6918 9.01858 10.8128 9.375 9.74198 9.375C8.67118 9.375 7.79213 9.01858 7.19328 8.67638C7.05785 8.59899 6.93521 8.52147 6.82617 8.44754ZM21.4083 9.375L21.4075 9.375L21.4087 8.5V9.375H21.4083ZM8.20051 2.375L8.19957 2.38442L7.74274 6.95365C7.83187 7.01687 7.93875 7.0868 8.06152 7.15695C8.4835 7.39809 9.06279 7.625 9.74198 7.625C10.4212 7.625 11.0005 7.39809 11.4224 7.15695C11.5654 7.07529 11.6867 6.99394 11.7837 6.9231V2.375H8.20051ZM18.8756 2.375L19.3274 6.89375C19.4301 6.97097 19.5651 7.06376 19.7282 7.15695C20.1502 7.39809 20.7295 7.625 21.4087 7.625L21.4098 7.625C22.0569 7.62585 22.6838 7.40986 23.1916 7.01428L22.4171 2.375H18.8756ZM17.5747 6.95359L17.1168 2.375H13.5337V6.9231C13.6306 6.99394 13.752 7.07529 13.8949 7.15695C14.3169 7.39809 14.8962 7.625 15.5754 7.625C16.2546 7.625 16.8338 7.39809 17.2558 7.15695C17.3786 7.08678 17.4855 7.01683 17.5747 6.95359Z" fill="#FFBF35"/>
</svg>
